<svg width="186" height="186" viewBox="0 0 186 186" fill="none" xmlns="http://www.w3.org/2000/svg">
<g clip-path="url(#clip0_10_2241)">
<path d="M89.3976 168.333C131.652 168.333 165.906 134.456 165.906 92.6667C165.906 50.8771 131.652 17 89.3976 17C47.1434 17 12.8896 50.8771 12.8896 92.6667C12.8896 134.456 47.1434 168.333 89.3976 168.333Z" fill="url(#paint0_linear_10_2241)"/>
<path fill-rule="evenodd" clip-rule="evenodd" d="M155.408 140.901C156.106 140.655 156.839 140.329 157.405 139.856C158.077 139.294 158.35 138.571 158.534 137.81C158.769 136.832 158.864 135.79 159.149 134.81C159.255 134.447 159.459 134.309 159.546 134.248C159.767 134.094 159.99 134.053 160.2 134.068C160.449 134.086 160.791 134.179 161.015 134.592C161.047 134.651 161.089 134.741 161.117 134.864C161.138 134.954 161.151 135.237 161.172 135.353C161.226 135.64 161.272 135.927 161.314 136.216C161.456 137.176 161.537 137.991 161.984 138.874C162.59 140.071 163.198 140.804 164.021 141.129C164.818 141.442 165.77 141.383 166.987 141.137C167.103 141.11 167.218 141.086 167.331 141.066C167.868 140.974 168.38 141.322 168.486 141.851C168.591 142.379 168.25 142.894 167.719 143.01C167.608 143.034 167.498 143.057 167.39 143.078C165.746 143.48 163.842 144.917 162.735 146.176C162.394 146.564 161.895 147.648 161.386 148.34C161.01 148.851 160.588 149.187 160.233 149.306C159.996 149.386 159.795 149.374 159.63 149.333C159.389 149.275 159.19 149.146 159.037 148.941C158.953 148.829 158.876 148.679 158.839 148.487C158.821 148.394 158.82 148.16 158.82 148.054C158.716 147.701 158.589 147.356 158.497 147C158.276 146.15 157.843 145.611 157.328 144.9C156.847 144.235 156.33 143.817 155.572 143.483C155.474 143.459 154.678 143.267 154.397 143.156C153.987 142.994 153.792 142.723 153.721 142.577C153.6 142.328 153.588 142.112 153.612 141.931C153.647 141.664 153.768 141.436 153.983 141.252C154.116 141.137 154.315 141.026 154.581 140.972C154.787 140.929 155.332 140.905 155.408 140.901ZM160.074 139.516C160.111 139.597 160.151 139.678 160.192 139.761C161.08 141.515 162.073 142.494 163.28 142.969L163.321 142.985C162.513 143.578 161.782 144.24 161.224 144.875C160.994 145.137 160.689 145.68 160.36 146.237C160.061 145.276 159.572 144.597 158.958 143.747C158.488 143.098 157.996 142.61 157.391 142.212C157.861 141.974 158.308 141.695 158.698 141.369C159.347 140.827 159.776 140.198 160.074 139.516Z" fill="#417BA4"/>
<ellipse cx="2.62347" cy="77.9216" rx="3.62347" ry="3.58363" fill="#417BA4"/>
<path d="M33.9566 45.8087C34.0662 46.1886 34.467 46.4072 34.8506 46.2962L33.9566 45.8087ZM33.9566 45.8087L33.6367 45.9025C32.7188 42.7724 30.9164 40.3316 28.1479 38.5646L28.1478 38.5645C27.6589 38.2522 27.5136 37.6015 27.8308 37.112C28.1444 36.6236 28.7973 36.4837 29.2853 36.7955C32.4947 38.8448 34.5972 41.6871 35.6606 45.3126C35.8262 45.8726 35.4984 46.4549 34.9437 46.6163L34.9433 46.6164C34.3857 46.7778 33.7978 46.4609 33.6363 45.9011L33.9566 45.8087Z" fill="#011625" stroke="#011625" stroke-width="0.666667"/>
<path d="M38.4118 69.8007L38.0915 69.893C37.8979 69.2208 37.6696 68.5624 37.4373 67.8923C37.4034 67.7945 37.3694 67.6965 37.3354 67.5981L37.3352 67.5974C36.4576 65.0383 35.3212 62.6358 34.0535 60.227L34.3484 60.0717L34.0534 60.227C33.713 59.5799 33.3737 58.9303 33.0339 58.2799C29.331 51.1906 25.5715 43.9931 19.5556 38.6803L19.5555 38.6803C19.1213 38.2966 19.0775 37.6314 19.4668 37.1963C19.8525 36.7618 20.5176 36.7253 20.9533 37.1071L20.9543 37.1079C27.2409 42.6583 31.1692 50.1693 34.9681 57.4331C35.2862 58.0413 35.6034 58.6478 35.921 59.2512L35.921 59.2512C36.7272 60.7835 37.4857 62.3209 38.1633 63.9001C38.1312 60.3158 38.2426 55.8786 38.8436 51.8783C39.1572 49.7893 39.6138 47.8113 40.2492 46.1135C40.8834 44.4191 41.7038 42.9816 42.7581 41.9965L42.7582 41.9965C49.2884 35.8987 57.8815 34.5149 63.7658 38.6644L63.7659 38.6645C64.2753 39.024 64.7654 39.413 65.2299 39.8301C68.3871 34.5761 74.8113 32.5158 80.4984 35.0982C81.0297 35.3387 81.2626 35.9625 81.0216 36.4904L81.0216 36.4904L81.0207 36.4924C80.7763 37.0184 80.1533 37.2499 79.6235 37.0103L79.6231 37.0101C74.7554 34.7998 69.2487 36.7127 66.7549 41.4134C67.2693 42.0346 67.7339 42.6998 68.1345 43.4052C68.3315 43.7514 68.6953 44.5131 68.7536 45.1961C68.8198 45.9436 68.5596 46.643 67.8365 47.0085L67.8363 47.0086C66.996 47.4326 66.2794 47.4046 65.7071 47.1211C65.1611 46.8513 64.762 46.3355 64.5194 45.6954L64.5193 45.6952C64.2882 45.0847 64.196 44.3338 64.1863 43.6243C64.1777 42.9918 64.2345 42.3702 64.3297 41.8765C63.7812 41.3282 63.1844 40.828 62.5482 40.3795C57.5018 36.8224 50.0209 38.0938 44.1995 43.5294C43.2294 44.4356 42.488 45.8652 41.9249 47.6401C41.3635 49.4096 40.9896 51.4888 40.7327 53.6607C40.0363 59.5429 40.2907 66.0244 40.4109 69.0872C40.4289 69.5467 40.4439 69.9292 40.4523 70.2213L40.4523 70.222C40.4598 70.5084 40.4502 70.7405 40.434 70.9133C40.426 70.9996 40.4161 71.0732 40.4054 71.1329C40.3966 71.1816 40.3829 71.2474 40.3589 71.3027C40.163 71.7635 39.799 71.8906 39.5724 71.9334L39.5689 71.934C39.2488 71.9909 38.9818 71.9299 38.7666 71.8189L38.7649 71.818C38.4712 71.6643 38.238 71.3944 38.1332 71.0062L38.1326 71.0037C38.077 70.7914 38.0669 70.5227 38.0728 70.2709L38.0729 70.2674C38.0747 70.2165 38.0785 70.1664 38.082 70.1224C38.0858 70.076 38.0891 70.0384 38.0914 70.0014C38.0936 69.9651 38.0942 69.9377 38.0933 69.9166C38.0924 69.8949 38.0903 69.8885 38.0912 69.8918L38.4118 69.8007ZM38.4118 69.8007C38.436 69.886 38.4264 70.0024 38.4165 70.1229C38.4122 70.1748 38.4078 70.2275 38.4061 70.2787L37.6505 67.4893C37.6843 67.5871 37.7182 67.6848 37.7521 67.7825C37.9841 68.4518 38.2156 69.1193 38.4118 69.8007ZM66.6267 45.224C66.6303 45.2278 66.6335 45.2307 66.6361 45.2329L66.6291 45.2341C66.6283 45.2307 66.6275 45.2274 66.6267 45.224ZM66.6267 45.224C66.5745 45.0054 66.4754 44.7782 66.3874 44.604C66.4165 44.7282 66.4513 44.8453 66.4922 44.9527L66.4923 44.9531C66.5312 45.0554 66.5615 45.1264 66.5934 45.1785C66.607 45.2008 66.6183 45.215 66.6267 45.224Z" fill="#011625" stroke="#011625" stroke-width="0.666667"/>
<rect x="54.0879" y="56.2579" width="131.704" height="46.9557" rx="16" fill="#011625"/>
<rect x="108.455" y="72.4229" width="44.4119" height="6.15812" rx="3.07906" fill="#CCC6D9"/>
<rect x="65.5742" y="81.66" width="87.5162" height="6.15812" rx="3.07906" fill="white"/>
<ellipse cx="168.946" cy="80.1205" rx="7.65723" ry="7.69765" fill="#E1DCEB"/>
<rect x="-1" y="95.516" width="131.704" height="46.9557" rx="16" fill="#E1DCEB"/>
<rect x="31.9258" y="111.681" width="44.4119" height="6.15812" rx="3.07906" fill="#7D58FC"/>
<rect x="31.9258" y="120.918" width="87.5162" height="6.15812" rx="3.07906" fill="white"/>
<ellipse cx="18.1426" cy="119.379" rx="7.65723" ry="7.69765" fill="#7D58FC"/>
</g>
<defs>
<linearGradient id="paint0_linear_10_2241" x1="88.8079" y1="-7.63893" x2="90.3409" y2="258.091" gradientUnits="userSpaceOnUse">
<stop stop-color="#F2F2F2"/>
<stop offset="1" stop-color="#EFEFEF"/>
</linearGradient>
<clipPath id="clip0_10_2241">
<rect width="186" height="186" fill="white"/>
</clipPath>
</defs>
</svg>
