<svg width="186" height="186" viewBox="0 0 186 186" fill="none" xmlns="http://www.w3.org/2000/svg">
<g clip-path="url(#clip0_10_2292)">
<path d="M96.5193 172.36C138.051 172.36 171.719 138.692 171.719 97.1598C171.719 55.628 138.051 21.9598 96.5193 21.9598C54.9875 21.9598 21.3193 55.628 21.3193 97.1598C21.3193 138.692 54.9875 172.36 96.5193 172.36Z" fill="url(#paint0_linear_10_2292)"/>
<path d="M51.1864 126.28L82.7854 39.5107L149.421 109.968L72.0273 145.495C59.6297 151.186 46.5185 139.098 51.1864 126.28Z" fill="#E1DCEB"/>
<path d="M124.725 66.9128C133.926 76.7155 141.341 86.4338 145.895 94.2169C148.174 98.1107 149.727 101.505 150.434 104.173C150.787 105.508 150.925 106.645 150.846 107.564C150.767 108.48 150.475 109.158 149.989 109.614C149.503 110.07 148.808 110.318 147.889 110.339C146.967 110.36 145.841 110.15 144.532 109.713C141.913 108.838 138.624 107.073 134.883 104.553C127.404 99.5154 118.174 91.499 108.974 81.6964C99.7735 71.8937 92.3576 62.1753 87.8036 54.3923C85.5253 50.4985 83.9725 47.1046 83.2652 44.4357C82.9116 43.1011 82.7739 41.9644 82.8531 41.0456C82.9321 40.1293 83.224 39.4515 83.7098 38.9955C84.1956 38.5395 84.8906 38.2911 85.81 38.2703C86.732 38.2495 87.8577 38.4588 89.1673 38.8963C91.786 39.7711 95.0748 41.5358 98.8165 44.0561C106.296 49.0938 115.525 57.1102 124.725 66.9128Z" fill="#011625" stroke="#011625" stroke-width="0.64"/>
<mask id="mask0_10_2292" style="mask-type:alpha" maskUnits="userSpaceOnUse" x="50" y="39" width="100" height="108">
<path d="M51.1864 126.28L82.7854 39.5107L149.421 109.968L72.0273 145.495C59.6297 151.186 46.5185 139.098 51.1864 126.28Z" fill="#E1DCEB"/>
</mask>
<g mask="url(#mask0_10_2292)">
<path fill-rule="evenodd" clip-rule="evenodd" d="M81.3037 97.2073C67.9532 79.7235 61.1982 58.8796 59.0195 44.8855L69.77 43.2118C71.7311 55.8082 77.9211 74.8501 89.951 90.6044C101.868 106.21 119.302 118.38 144.166 118.38V129.26C115.149 129.26 94.7675 114.839 81.3037 97.2073Z" fill="#011625"/>
<path fill-rule="evenodd" clip-rule="evenodd" d="M82.7364 93.8636C69.3858 76.3797 62.6309 55.5358 60.4521 41.5418L71.2026 39.868C73.1638 52.4645 79.3538 71.5063 91.3836 87.2606C103.3 102.867 120.735 115.036 145.599 115.036V125.916C116.581 125.916 96.2001 111.496 82.7364 93.8636Z" fill="white"/>
<path fill-rule="evenodd" clip-rule="evenodd" d="M65.5401 119.18C52.1895 101.697 45.4346 80.8526 43.2559 66.8585L54.0063 65.1848C55.9675 77.7813 62.1575 96.8231 74.1873 112.577C86.104 128.183 103.538 140.353 128.403 140.353V151.233C99.3851 151.233 79.0038 136.812 65.5401 119.18Z" fill="white"/>
</g>
<circle cx="112.201" cy="133.32" r="19.2" fill="#7D58FC"/>
<path fill-rule="evenodd" clip-rule="evenodd" d="M119.97 127.494C120.713 128.25 120.703 129.466 119.947 130.209L110.832 139.169C110.085 139.903 108.887 139.903 108.14 139.169L104.455 135.547C103.699 134.804 103.688 133.588 104.432 132.832C105.175 132.076 106.391 132.065 107.147 132.808L109.486 135.108L117.255 127.471C118.011 126.727 119.227 126.738 119.97 127.494Z" fill="white"/>
<path d="M149.745 41.652L149.745 41.6518C150.881 38.7665 151.334 35.8889 151.808 32.8727C151.889 32.3588 151.971 31.8408 152.056 31.3181L149.745 41.652ZM149.745 41.652C149.551 42.1445 148.993 42.388 148.501 42.1935L148.499 42.1928C148.007 42.0015 147.763 41.4447 147.957 40.9529L147.957 40.9528C149.041 38.1981 149.469 35.4396 149.903 32.6385C149.987 32.0973 150.071 31.5545 150.16 31.0098M149.745 41.652L148.383 42.4911C147.725 42.2355 147.401 41.4922 147.659 40.8356C148.729 38.1169 149.151 35.3987 149.585 32.598C149.67 32.0546 149.755 31.5082 149.845 30.9581L150.16 31.0099C150.16 31.0099 150.16 31.0098 150.16 31.0098M150.16 31.0098C150.246 30.4865 150.741 30.1312 151.263 30.2173C151.787 30.3037 152.142 30.796 152.056 31.3181L150.16 31.0098Z" fill="#011625" stroke="#011625" stroke-width="0.64"/>
<path d="M156.349 49.3478L156.348 49.348C155.914 49.6498 155.314 49.5412 155.011 49.1072C154.71 48.6752 154.816 48.0787 155.251 47.7762C161.695 43.3153 168.009 37.308 172.704 31.0148L172.704 31.0146C173.02 30.5911 173.622 30.5031 174.049 30.8185C174.473 31.1324 174.562 31.7326 174.246 32.1569C169.434 38.6067 162.958 44.7693 156.349 49.3478Z" fill="#011625" stroke="#011625" stroke-width="0.64"/>
<path d="M174.085 53.5661L174.085 53.5655C173.939 53.0577 173.407 52.7628 172.896 52.9072C168.134 54.2695 162.801 55.0608 157.895 53.5638L157.895 53.5638C157.387 53.4087 156.85 53.695 156.696 54.1977L156.696 54.1978C156.542 54.7001 156.827 55.2379 157.334 55.3929L174.085 53.5661ZM174.085 53.5661C174.231 54.0687 173.938 54.5997 173.427 54.7479M174.085 53.5661L173.427 54.7479M173.427 54.7479C168.245 56.2283 162.537 56.9814 157.334 55.393L173.427 54.7479Z" fill="#011625" stroke="#011625" stroke-width="0.64"/>
<circle cx="157.64" cy="64.8398" r="3.84" fill="#417BA4"/>
<circle cx="125.64" cy="25.1597" r="3.84" fill="#417BA4"/>
<path d="M133.027 42.0946C132.696 40.7224 130.744 40.7224 130.413 42.0946L129.983 43.8719C129.865 44.3623 129.482 44.7452 128.992 44.8635L127.215 45.2926C125.842 45.6238 125.842 47.5756 127.215 47.9068L128.992 48.3359C129.482 48.4542 129.865 48.8371 129.983 49.3275L130.413 51.1048C130.744 52.477 132.696 52.477 133.027 51.1048L133.456 49.3275C133.574 48.8371 133.957 48.4542 134.447 48.3359L136.225 47.9068C137.597 47.5756 137.597 45.6238 136.225 45.2926L134.447 44.8635C133.957 44.7452 133.574 44.3623 133.456 43.8719L133.027 42.0946Z" fill="#417BA4"/>
<path fill-rule="evenodd" clip-rule="evenodd" d="M116.658 12.5586C117.046 13.5455 116.56 14.66 115.573 15.0481C112.757 16.1557 109.147 19.7235 106.737 24.1644C104.902 27.5447 104.011 30.9585 104.385 33.7523C105.512 32.1434 106.862 30.8237 108.427 29.9759C111.232 28.4562 114.433 28.6175 117.532 30.7294C120.24 32.5746 121.344 35.2003 121.052 37.8165C120.772 40.3178 119.246 42.5791 117.176 43.9997C115.075 45.4415 112.286 46.1064 109.408 45.2252C107.777 44.7256 106.212 43.7597 104.78 42.2929C103.415 47.6102 103.464 54.2707 105.721 60.1614C106.101 61.1516 105.605 62.2619 104.615 62.6414C103.625 63.0208 102.515 62.5257 102.135 61.5356C99.1583 53.7668 99.545 44.8941 101.973 38.432C101.904 38.3074 101.835 38.1811 101.768 38.0531C99.2136 33.231 100.743 27.1581 103.362 22.3327C106.001 17.4699 110.186 13.0404 114.168 11.4744C115.155 11.0864 116.27 11.5718 116.658 12.5586ZM106.284 38.1019C107.734 40.1618 109.239 41.1574 110.532 41.5535C112.161 42.0522 113.749 41.6945 115.004 40.8335C116.289 39.9513 117.097 38.6295 117.236 37.3899C117.361 36.2651 116.968 34.9919 115.37 33.9026C113.344 32.5221 111.68 32.5808 110.256 33.3524C108.835 34.1219 107.429 35.732 106.284 38.1019Z" fill="#E3E3E3"/>
<path fill-rule="evenodd" clip-rule="evenodd" d="M178.638 87.6503C158.512 80.1701 143.111 89.4715 138.13 94.7324C136.915 96.0158 134.89 96.0713 133.607 94.8563C132.323 93.6413 132.268 91.6159 133.483 90.3325C139.807 83.6515 157.811 73.0817 180.867 81.6513C182.524 82.267 183.368 84.1091 182.752 85.7657C182.136 87.4223 180.294 88.2661 178.638 87.6503Z" fill="#CCC6D9"/>
<path fill-rule="evenodd" clip-rule="evenodd" d="M158.164 94.375C158.613 94.2105 159.086 93.992 159.45 93.6756C159.883 93.2997 160.059 92.8157 160.177 92.3062C160.329 91.6516 160.39 90.9543 160.574 90.2986C160.642 90.0551 160.773 89.9631 160.829 89.9222C160.971 89.8191 161.115 89.7915 161.25 89.8018C161.411 89.8138 161.631 89.8761 161.776 90.1522C161.796 90.1917 161.823 90.2519 161.841 90.3344C161.854 90.3949 161.863 90.584 161.877 90.662C161.912 90.854 161.941 91.046 161.968 91.2391C162.059 91.8818 162.112 92.4276 162.399 93.018C162.79 93.8196 163.181 94.31 163.712 94.5272C164.225 94.7373 164.839 94.6978 165.622 94.5331C165.697 94.5145 165.771 94.4986 165.844 94.4856C166.189 94.4235 166.52 94.6567 166.588 95.0105C166.656 95.364 166.436 95.7086 166.093 95.7863C166.022 95.8025 165.951 95.8178 165.882 95.8319C164.823 96.1014 163.596 97.0631 162.884 97.9052C162.664 98.1649 162.342 98.8908 162.014 99.3539C161.772 99.6955 161.5 99.9207 161.272 100C161.119 100.054 160.99 100.046 160.883 100.019C160.728 99.9793 160.6 99.8931 160.501 99.756C160.447 99.6809 160.398 99.5804 160.374 99.4521C160.362 99.3903 160.361 99.2332 160.361 99.1622C160.295 98.9258 160.213 98.6951 160.153 98.4566C160.011 97.8877 159.732 97.5275 159.4 97.0517C159.09 96.6064 158.758 96.3266 158.269 96.1032C158.206 96.0873 157.694 95.9584 157.513 95.8844C157.248 95.7759 157.122 95.5942 157.077 95.4964C156.999 95.3303 156.991 95.1853 157.007 95.0643C157.029 94.8858 157.107 94.733 157.246 94.6097C157.331 94.5331 157.459 94.4585 157.631 94.4222C157.763 94.3938 158.115 94.3774 158.164 94.375ZM161.17 93.4477C161.193 93.5021 161.219 93.5567 161.245 93.6119C161.817 94.7858 162.457 95.4412 163.234 95.7592L163.26 95.7696C162.74 96.1664 162.27 96.6098 161.91 97.035C161.762 97.21 161.565 97.5737 161.354 97.9466C161.161 97.3034 160.846 96.8488 160.45 96.2799C160.148 95.8457 159.831 95.5189 159.441 95.2526C159.743 95.0932 160.032 94.9065 160.283 94.6885C160.701 94.3254 160.977 93.9047 161.17 93.4477Z" fill="#417BA4"/>
<path d="M42.1372 104.456C42.0892 104.86 41.7217 105.147 41.3178 105.096L42.1372 104.456ZM42.1372 104.456L42.4548 104.495C42.8668 101.157 44.2832 98.378 46.7822 96.13L46.7823 96.1299C47.2146 95.7407 47.2518 95.0719 46.8627 94.6366C46.4756 94.2 45.8068 94.1623 45.3734 94.5526C42.4842 97.1527 40.8374 100.378 40.3617 104.231C40.2888 104.811 40.7017 105.34 41.2774 105.413L41.2778 105.413C41.8579 105.486 42.3859 105.074 42.455 104.493L42.1372 104.456Z" fill="#011625" stroke="#011625" stroke-width="0.64"/>
<path d="M8.26139 111.134L8.26118 111.134C7.4835 110.883 7.11288 110.223 7.05785 109.461C7.00523 108.763 7.24497 107.933 7.38611 107.551C7.67515 106.765 8.03586 106.009 8.45463 105.291C5.17194 100.892 -0.697809 99.8323 -5.24341 102.875L-5.24378 102.875C-5.73086 103.2 -6.38402 103.066 -6.70826 102.582L-6.70943 102.58L-6.70942 102.58C-7.02949 102.095 -6.90265 101.438 -6.41596 101.113C-1.11825 97.567 5.68014 98.63 9.70566 103.468C10.1079 102.964 10.5412 102.483 10.9993 102.031L10.9994 102.031C16.2314 96.8664 25.0915 96.8815 32.6516 102.023L32.6516 102.023C33.8693 102.851 34.9274 104.177 35.8413 105.796C36.7569 107.417 37.5391 109.353 38.1959 111.426C39.4655 115.431 40.3068 119.969 40.8607 123.637C41.2881 121.889 41.8078 120.173 42.3781 118.453L42.3782 118.453C42.5988 117.788 42.8186 117.12 43.039 116.451C45.6719 108.449 48.393 100.179 53.8054 93.5203L53.8061 93.5194C54.1758 93.0681 54.8403 92.9993 55.2908 93.3717C55.7428 93.7424 55.8064 94.4093 55.4405 94.8599L55.4404 94.86C50.256 101.239 47.6508 109.171 45.0864 116.979C44.851 117.696 44.616 118.412 44.3794 119.125L44.0757 119.024L44.3794 119.125C43.4981 121.78 42.7477 124.409 42.2834 127.155L42.2832 127.156C42.2652 127.261 42.247 127.366 42.2289 127.471C42.1049 128.19 41.9829 128.897 41.898 129.613L41.5802 129.575M8.26139 111.134L39.9334 130.289C40.0088 130.85 40.1143 131.173 40.1539 131.234L39.8821 131.403C39.8823 131.404 39.8826 131.404 39.8828 131.404C40.1493 131.832 40.5282 131.902 40.7611 131.909L40.7645 131.909C41.092 131.915 41.3471 131.811 41.5425 131.665L41.544 131.664C41.8102 131.463 41.9969 131.157 42.0381 130.752L42.0383 130.75C42.0591 130.529 42.0259 130.257 41.9789 130.002L41.9782 129.999C41.9683 129.948 41.9564 129.899 41.9456 129.854C41.9432 129.844 41.9408 129.835 41.9385 129.825C41.9302 129.792 41.9229 129.762 41.9163 129.732C41.9081 129.695 41.9028 129.667 41.9001 129.644C41.8973 129.62 41.8982 129.611 41.8981 129.612L41.5802 129.575M8.26139 111.134C9.17144 111.428 9.88222 111.284 10.4066 110.907L8.26139 111.134ZM41.5802 129.575C41.6662 128.851 41.7898 128.134 41.9137 127.416C41.9318 127.311 41.9499 127.206 41.9678 127.102L41.6642 130.061M41.5802 129.575C41.5698 129.666 41.5985 129.783 41.6283 129.904C41.6411 129.956 41.6541 130.009 41.6642 130.061M41.6642 130.061C41.7101 130.309 41.7362 130.545 41.7197 130.72L41.6642 130.061ZM8.86523 109.44C9.08133 109.507 9.24563 109.53 9.36288 109.445C9.50965 109.34 9.56086 109.14 9.60562 108.919C9.68478 108.53 9.68507 108.069 9.63744 107.612C9.5402 107.833 9.44922 108.059 9.36389 108.288C9.35878 108.302 9.35348 108.316 9.34803 108.332M8.86523 109.44L9.18117 109.39C9.17691 109.363 9.17076 109.321 9.16617 109.276C9.16181 109.234 9.15999 109.201 9.16026 109.18M8.86523 109.44L8.9507 109.165L8.86523 109.44ZM9.16026 109.18C9.16164 109.18 9.163 109.18 9.16432 109.18C9.17273 109.18 9.17864 109.18 9.18254 109.18M9.16026 109.18C9.1461 109.179 9.12928 109.177 9.10923 109.173M9.16026 109.18L9.10923 109.173M9.18254 109.18C9.18012 109.182 9.17814 109.184 9.17667 109.185L9.17508 109.186C9.17563 109.186 9.17616 109.185 9.17669 109.185C9.18369 109.18 9.1887 109.179 9.18875 109.179C9.18877 109.179 9.18693 109.18 9.18254 109.18ZM9.18254 109.18C9.19176 109.171 9.20741 109.151 9.2259 109.105C9.25039 109.045 9.26965 108.966 9.29198 108.856L9.29205 108.855C9.32466 108.695 9.34257 108.518 9.34803 108.332M9.34803 108.332C9.34851 108.316 9.34889 108.3 9.34918 108.283M9.34803 108.332C9.27546 108.538 9.17708 108.872 9.1604 109.174C9.16041 109.174 9.16043 109.173 9.16045 109.173L9.34918 108.283M9.34918 108.283L9.06369 108.177M9.34918 108.283L9.34922 108.281M9.34922 108.281C9.35317 108.051 9.33872 107.807 9.31 107.562C9.22297 107.765 9.14102 107.969 9.06369 108.177M9.34922 108.281L9.06369 108.177M9.34922 108.281L9.06369 108.177M9.10923 109.173L9.16028 109.176L9.10923 109.173Z" fill="#011625" stroke="#011625" stroke-width="0.64"/>
</g>
<defs>
<linearGradient id="paint0_linear_10_2292" x1="95.9396" y1="-2.52713" x2="97.4801" y2="261.564" gradientUnits="userSpaceOnUse">
<stop stop-color="#F2F2F2"/>
<stop offset="1" stop-color="#EFEFEF"/>
</linearGradient>
<clipPath id="clip0_10_2292">
<rect width="186" height="186" fill="white"/>
</clipPath>
</defs>
</svg>
