<svg width="186" height="186" viewBox="0 0 186 186" fill="none" xmlns="http://www.w3.org/2000/svg">
<g clip-path="url(#clip0_10_2293)">
<path d="M100.75 162.44C140.984 162.44 173.6 129.824 173.6 89.59C173.6 49.356 140.984 16.74 100.75 16.74C60.5164 16.74 27.9004 49.356 27.9004 89.59C27.9004 129.824 60.5164 162.44 100.75 162.44Z" fill="url(#paint0_linear_10_2293)"/>
<path d="M140.164 20.46H61.286C58.3511 20.46 55.5363 21.7065 53.461 23.9254C51.3856 26.1443 50.2197 29.1538 50.2197 32.2918V128.392H50.355V162.139C50.3549 163.442 50.6671 164.724 51.2619 165.861C51.8566 166.998 52.7141 167.954 53.7524 168.636C54.7907 169.318 55.9752 169.705 57.1929 169.759C58.4106 169.812 59.6208 169.531 60.7081 168.943L97.0917 149.223C98.083 148.692 99.1766 148.415 100.286 148.415C101.394 148.415 102.488 148.692 103.479 149.223L140.982 169.087C142.07 169.664 143.278 169.934 144.49 169.871C145.703 169.809 146.881 169.416 147.913 168.731C148.944 168.046 149.794 167.09 150.384 165.955C150.973 164.82 151.281 163.543 151.28 162.245L151.181 128.392V32.2589C151.173 29.1357 150.011 26.1426 147.947 23.9323C145.883 21.722 143.085 20.4738 140.164 20.46Z" fill="#E1DCEB"/>
<path fill-rule="evenodd" clip-rule="evenodd" d="M124.897 134.392L62.5869 167.872L61.4131 165.688L123.723 132.208L124.897 134.392Z" fill="#011625"/>
<circle cx="100.751" cy="70.9901" r="35.65" fill="#7D58FC"/>
<path fill-rule="evenodd" clip-rule="evenodd" d="M100.441 42.1601C89.5105 42.1601 80.1137 48.7381 75.9987 58.1565C75.7245 58.7841 74.9935 59.0705 74.3659 58.7963C73.7384 58.5221 73.4519 57.7911 73.7261 57.1636C78.2216 46.8745 88.4897 39.6801 100.441 39.6801C101.126 39.6801 101.681 40.2352 101.681 40.9201C101.681 41.6049 101.126 42.1601 100.441 42.1601Z" fill="white"/>
<path d="M102.599 50.7916L107.613 61.4181C107.762 61.7332 107.981 62.0057 108.253 62.2123C108.525 62.4189 108.84 62.5534 109.173 62.6042L120.38 64.2948C120.76 64.3557 121.116 64.5255 121.409 64.7854C121.701 65.0453 121.919 65.3851 122.038 65.7669C122.157 66.1488 122.173 66.5577 122.083 66.9481C121.993 67.3385 121.801 67.6951 121.528 67.9782L113.43 76.2474C113.189 76.4925 113.009 76.7954 112.905 77.1298C112.801 77.4642 112.777 77.82 112.835 78.1664L114.75 89.8427C114.816 90.2419 114.773 90.6523 114.628 91.0276C114.482 91.4028 114.238 91.7279 113.925 91.966C113.612 92.204 113.241 92.3455 112.855 92.3745C112.469 92.4035 112.082 92.3188 111.74 92.13L101.715 86.605C101.417 86.4417 101.086 86.3564 100.75 86.3564C100.414 86.3564 100.083 86.4417 99.7856 86.605L89.761 92.13C89.4185 92.3178 89.0327 92.4017 88.647 92.3722C88.2614 92.3427 87.8913 92.201 87.5785 91.9631C87.2658 91.7252 87.0229 91.4006 86.8772 91.0259C86.7315 90.6512 86.6888 90.2414 86.754 89.8427L88.666 78.1664C88.7234 77.82 88.6992 77.4642 88.5955 77.1298C88.4918 76.7954 88.3118 76.4925 88.0709 76.2474L79.9724 67.9782C79.7001 67.6951 79.5082 67.3385 79.4182 66.9481C79.3281 66.5577 79.3435 66.1488 79.4625 65.7669C79.5815 65.3851 79.7995 65.0453 80.0922 64.7854C80.3849 64.5255 80.7408 64.3557 81.1203 64.2948L92.3279 62.5931C92.6603 62.5424 92.9759 62.4079 93.2476 62.2013C93.5193 61.9947 93.739 61.7221 93.8877 61.4071L98.9018 50.7806C99.0763 50.4242 99.3416 50.1253 99.6684 49.917C99.9953 49.7086 100.371 49.599 100.754 49.6001C101.136 49.6013 101.511 49.7132 101.837 49.9235C102.163 50.1338 102.426 50.4342 102.599 50.7916Z" fill="white"/>
<g filter="url(#filter0_f_10_2293)">
<ellipse cx="100.527" cy="110.467" rx="32.3269" ry="6.9272" fill="#6B6B6B" fill-opacity="0.39"/>
</g>
<path fill-rule="evenodd" clip-rule="evenodd" d="M36.93 148.138C35.0068 150.615 33.8604 153.314 32.5234 156.099C32.2624 156.643 32.4929 157.294 33.0365 157.556C33.5805 157.818 34.234 157.587 34.4953 157.044C35.763 154.403 36.8323 151.829 38.6586 149.476C39.0281 149 38.9408 148.313 38.463 147.945C37.987 147.575 37.2992 147.662 36.93 148.138Z" fill="#011625"/>
<path fill-rule="evenodd" clip-rule="evenodd" d="M33.4973 140.155C26.9556 142.327 20.1426 145.834 14.6264 149.982C14.145 150.344 14.049 151.029 14.413 151.509C14.777 151.989 15.4624 152.087 15.9438 151.724C21.2776 147.715 27.8667 144.323 34.1911 142.225C34.7633 142.034 35.0721 141.416 34.8803 140.846C34.6885 140.275 34.0695 139.964 33.4973 140.155Z" fill="#011625"/>
<path fill-rule="evenodd" clip-rule="evenodd" d="M34.3789 134.997C30.4327 132.403 25.5128 131.646 20.89 131.614C20.286 131.612 19.7943 132.097 19.7922 132.697C19.7889 133.3 20.2767 133.791 20.8792 133.796C25.0899 133.824 29.5854 134.455 33.1797 136.817C33.6839 137.149 34.3621 137.009 34.6923 136.508C35.0228 136.007 34.8827 135.328 34.3789 134.997Z" fill="#011625"/>
<circle cx="165.54" cy="31.62" r="3.72" fill="#417BA4"/>
</g>
<defs>
<filter id="filter0_f_10_2293" x="55.372" y="90.7119" width="90.3106" height="39.5107" filterUnits="userSpaceOnUse" color-interpolation-filters="sRGB">
<feFlood flood-opacity="0" result="BackgroundImageFix"/>
<feBlend mode="normal" in="SourceGraphic" in2="BackgroundImageFix" result="shape"/>
<feGaussianBlur stdDeviation="6.41408" result="effect1_foregroundBlur_10_2293"/>
</filter>
<linearGradient id="paint0_linear_10_2293" x1="100.189" y1="-6.98176" x2="101.681" y2="248.856" gradientUnits="userSpaceOnUse">
<stop stop-color="#F5F5F5"/>
<stop offset="1" stop-color="#EFEFEF"/>
</linearGradient>
<clipPath id="clip0_10_2293">
<rect width="186" height="186" fill="white"/>
</clipPath>
</defs>
</svg>
