<svg width="16" height="12" viewBox="0 0 16 12" fill="none" xmlns="http://www.w3.org/2000/svg">
<g clip-path="url(#clip0_10_2283)">
<path d="M13.9031 0.354577C14.1334 0.127858 14.4458 0.000488281 14.7715 0.000488281C15.0972 0.000488281 15.4095 0.127858 15.6398 0.354577C15.8701 0.581296 15.9995 0.888793 15.9995 1.20942C15.9995 1.53005 15.8701 1.83755 15.6398 2.06427L7.00981 11.6464C6.77943 11.873 6.46711 12.0002 6.14148 12.0002C5.81584 12.0002 5.50353 11.873 5.27315 11.6464L0.359813 6.8094C0.245738 6.6971 0.155249 6.56378 0.0935122 6.41704C0.0317753 6.27031 1.20197e-09 6.11305 0 5.95423C-1.20197e-09 5.79541 0.0317753 5.63814 0.0935122 5.49141C0.155249 5.34468 0.245738 5.21136 0.359813 5.09905C0.473888 4.98675 0.609315 4.89767 0.758361 4.83689C0.907407 4.77611 1.06715 4.74483 1.22848 4.74483C1.38981 4.74483 1.54955 4.77611 1.6986 4.83689C1.84765 4.89767 1.98307 4.98675 2.09715 5.09905L6.14181 9.08155L13.9031 0.354577Z" fill="#7D58FC"/>
</g>
<defs>
<clipPath id="clip0_10_2283">
<rect width="16" height="12" fill="white"/>
</clipPath>
</defs>
</svg>
