<svg width="190" height="48" viewBox="0 0 190 48" fill="none" xmlns="http://www.w3.org/2000/svg">
<g clip-path="url(#clip0_10_2262)">
<path d="M0.269219 46.7496C0.222774 46.7483 0.177424 46.735 0.137655 46.7111C0.0978852 46.6871 0.0650484 46.6533 0.0422913 46.6129C0.0195342 46.5725 0.00764366 46.527 0.00781431 46.4807C0.00798496 46.4344 0.0202026 46.3888 0.0432567 46.3486L24.7981 3.61492C25.2435 2.88828 25.8691 2.2883 26.6147 1.87285C27.3604 1.4574 28.2008 1.24048 29.055 1.24306C29.1011 1.24457 29.146 1.25777 29.1856 1.28141C29.2251 1.30506 29.258 1.33838 29.281 1.3782L37.0446 14.7849L44.8081 1.3782C44.8311 1.33838 44.864 1.30506 44.9035 1.28141C44.9431 1.25777 44.988 1.24457 45.0341 1.24306C45.8883 1.24048 46.7287 1.4574 47.4743 1.87285C48.22 2.2883 48.8456 2.88828 49.2909 3.61492L65.2452 31.1851C66.4895 33.286 68.2642 35.0252 70.3926 36.2297C72.521 37.4341 74.9289 38.0616 77.3762 38.0497C79.8236 38.0379 82.2251 37.3871 84.3417 36.1621C86.4583 34.9371 88.2159 33.1807 89.4397 31.0679C90.6635 28.955 91.3107 26.5594 91.3169 24.1196C91.323 21.6798 90.6879 19.281 89.4747 17.162C88.2615 15.0431 86.5127 13.2779 84.4023 12.0424C82.2919 10.8069 79.8936 10.1441 77.4464 10.12C75.2906 10.0766 73.152 10.5113 71.1853 11.3927C69.5109 12.1899 67.591 12.3065 65.8318 11.718C64.0725 11.1295 62.6119 9.88195 61.7588 8.23918L60.7239 6.45298C60.6922 6.39801 60.6808 6.33379 60.6915 6.2713C60.7022 6.20881 60.7345 6.152 60.7827 6.11065C65.4365 2.103 71.3987 -0.0718492 77.5481 -0.0048443C93.7079 -0.0048443 101.548 12.8184 101.548 23.9861C101.493 29.3739 99.6406 34.59 96.2825 38.8118C92.9243 43.0336 88.2519 46.0207 83.0022 47.3021C77.7525 48.5835 72.2242 48.0861 67.2894 45.8885C62.3547 43.6909 58.2942 39.9181 55.7486 35.1652L46.6202 19.3979C46.5958 19.3603 46.5624 19.3293 46.5229 19.3079C46.4835 19.2864 46.4393 19.2751 46.3943 19.2751C46.3494 19.2751 46.3051 19.2864 46.2657 19.3079C46.2262 19.3293 46.1927 19.3603 46.1684 19.3979L37.2683 34.7552C37.245 34.7959 37.2112 34.8298 37.1706 34.8534C37.1299 34.8769 37.0837 34.8893 37.0366 34.8893C36.9896 34.8893 36.9434 34.8769 36.9027 34.8534C36.8621 34.8298 36.8283 34.7959 36.805 34.7552L27.9095 19.3979C27.8851 19.3603 27.8517 19.3293 27.8122 19.3079C27.7727 19.2864 27.7285 19.2751 27.6835 19.2751C27.6386 19.2751 27.5943 19.2864 27.5549 19.3079C27.5154 19.3293 27.4819 19.3603 27.4576 19.3979L13.8193 42.9384C13.1498 44.0939 12.1871 45.0534 11.0278 45.7204C9.86844 46.3874 8.55337 46.7385 7.21481 46.7383L0.269219 46.7496Z" fill="#7D58FC"/>
<path d="M126.556 1.24104H106.515C106.444 1.24163 106.376 1.27016 106.326 1.32036C106.276 1.37057 106.248 1.43842 106.248 1.50912V46.4773C106.248 46.5478 106.276 46.6154 106.326 46.6652C106.376 46.7151 106.444 46.7431 106.515 46.7431H116.208C116.243 46.7434 116.278 46.7367 116.311 46.7235C116.343 46.7103 116.373 46.6908 116.398 46.666C116.423 46.6413 116.443 46.6119 116.456 46.5795C116.47 46.5471 116.477 46.5124 116.477 46.4773V10.6879C116.477 10.6174 116.505 10.5498 116.555 10.4999C116.605 10.4501 116.673 10.4221 116.743 10.4221H123.845C130.831 10.4221 138.884 14.427 138.884 23.9932C138.935 27.1019 137.906 30.1326 135.97 32.5703C134.034 35.0081 131.312 36.7027 128.264 37.3661C126.795 37.974 125.549 39.016 124.692 40.3518C123.835 41.6877 123.409 43.2531 123.472 44.8375V46.3039C123.473 46.3742 123.501 46.4414 123.551 46.4912C123.601 46.5409 123.668 46.5691 123.739 46.5697H126.543C132.544 46.5953 138.314 44.2616 142.601 40.0746C146.887 35.8876 149.346 30.1847 149.443 24.2027C149.522 21.1781 148.985 18.169 147.865 15.357C146.745 12.5451 145.065 9.98869 142.925 7.84246C140.786 5.69623 138.233 4.00467 135.419 2.87003C132.606 1.73539 129.591 1.18123 126.556 1.24104Z" fill="#7D58FC"/>
<path d="M175.928 5.0793L168.245 17.9499C168.221 17.9881 168.188 18.0195 168.148 18.0413C168.109 18.0632 168.064 18.0746 168.019 18.0746C167.974 18.0746 167.93 18.0632 167.89 18.0413C167.851 18.0195 167.817 17.9881 167.793 17.9499L160.111 5.0793C159.441 3.88409 158.454 2.89515 157.259 2.22C156.064 1.54485 154.706 1.20941 153.333 1.25015H146.299C146.251 1.2498 146.203 1.2624 146.162 1.28665C146.121 1.31091 146.086 1.34589 146.063 1.38791C146.04 1.42992 146.029 1.47741 146.03 1.52532C146.032 1.57323 146.047 1.61984 146.073 1.66012L162.906 28.1513V46.4841C162.906 46.5548 162.934 46.6227 162.984 46.6729C163.034 46.7231 163.102 46.7516 163.173 46.7521H172.866C172.937 46.7516 173.005 46.7231 173.055 46.6729C173.105 46.6227 173.133 46.5548 173.133 46.4841V28.1423L189.966 1.65111C189.992 1.61083 190.006 1.56422 190.008 1.51631C190.01 1.4684 189.999 1.42092 189.975 1.3789C189.952 1.33688 189.918 1.30191 189.877 1.27765C189.835 1.25339 189.788 1.2408 189.74 1.24115H182.697C181.324 1.20068 179.966 1.5373 178.772 2.21423C177.579 2.89116 176.594 3.8823 175.928 5.0793Z" fill="#7D58FC"/>
</g>
<defs>
<clipPath id="clip0_10_2262">
<rect width="190" height="48" fill="white"/>
</clipPath>
</defs>
</svg>
