<svg width="20" height="21" viewBox="0 0 20 21" fill="none" xmlns="http://www.w3.org/2000/svg">
<path fill-rule="evenodd" clip-rule="evenodd" d="M10 1.7956C11.3316 1.74562 12.665 1.78273 13.9917 1.90668C14.6353 1.89878 15.2746 2.01182 15.8765 2.23992C16.7069 2.62715 17.3743 3.29492 17.7613 4.12581C17.9893 4.72804 18.1023 5.36775 18.0944 6.01169C18.0944 7.01017 18.2054 7.34341 18.2054 10.0056C18.2554 11.3379 18.2183 12.6721 18.0944 13.9995C18.1023 14.6435 17.9893 15.2832 17.7613 15.8854C17.3743 16.7163 16.7069 17.3841 15.8765 17.7713C15.2746 17.9994 14.6353 18.1124 13.9917 18.1045C12.9938 18.1045 12.6607 18.2156 10 18.2156C8.66844 18.2656 7.33504 18.2285 6.00832 18.1045C5.36474 18.1124 4.72539 17.9994 4.12349 17.7713C3.29307 17.3841 2.62568 16.7163 2.23867 15.8854C2.01069 15.2832 1.89771 14.6435 1.90561 13.9995C1.90561 13.0011 1.79459 12.6678 1.79459 10.0056C1.74465 8.6733 1.78173 7.33916 1.90561 6.01169C1.89771 5.36775 2.01069 4.72804 2.23867 4.12581C2.43212 3.71436 2.69453 3.33909 3.01455 3.01624C3.27444 2.62809 3.66998 2.35118 4.12349 2.23992C4.72539 2.01182 5.36474 1.89878 6.00832 1.90668C7.33504 1.78273 8.66844 1.74562 10 1.7956ZM10 0.020799C8.63146 -0.0280033 7.2612 0.00909653 5.8973 0.13188C5.06423 0.129876 4.2378 0.280029 3.45863 0.574956C2.7858 0.794602 2.17685 1.17552 1.68482 1.68452C1.17548 2.17704 0.794332 2.78679 0.574634 3.46057C0.226815 4.2245 0.0746257 5.06309 0.131806 5.90061C0.00909143 7.26527 -0.0279876 8.6363 0.0207873 10.0056C-0.0279876 11.3749 0.00909143 12.7459 0.131806 14.1106C0.13005 14.9446 0.280544 15.772 0.575881 16.5519C0.795404 17.2251 1.1761 17.8344 1.68482 18.3267C2.17685 18.8357 2.7858 19.2166 3.45863 19.4363C4.23811 19.7318 5.06498 19.8823 5.89854 19.8806C7.26206 20.0029 8.6319 20.0396 10 19.9904C11.3685 20.0392 12.7388 20.0021 14.1027 19.8793C14.9363 19.8811 15.7631 19.7305 16.5426 19.435C17.2105 19.2048 17.8172 18.8254 18.3166 18.3257C18.8161 17.8259 19.1953 17.2189 19.4254 16.5507C19.7207 15.7707 19.8712 14.9434 19.8694 14.1094C19.8682 13.0011 19.9792 12.6678 19.9792 10.0056C20.028 8.6363 19.9909 7.26527 19.8682 5.90061C19.87 5.06658 19.7195 4.23924 19.4241 3.45932C19.2046 2.78611 18.8239 2.17682 18.3152 1.68452C17.8232 1.17552 17.2142 0.794602 16.5414 0.574956C15.7622 0.280029 14.9358 0.129876 14.1027 0.13188C12.7388 0.00909653 11.3685 -0.0280033 10 0.020799ZM10 4.90212C9.32711 4.89099 8.65885 5.01538 8.03498 5.26791C7.41111 5.52044 6.84439 5.89595 6.36851 6.37209C5.89264 6.84823 5.51735 7.41527 5.26496 8.03949C5.01257 8.66371 4.88824 9.33234 4.89937 10.0056C4.89937 11.015 5.19852 12.0017 5.75899 12.841C6.31945 13.6802 7.11606 14.3343 8.04808 14.7206C8.98009 15.1069 10.0057 15.208 10.9951 15.011C11.9845 14.8141 12.8934 14.3281 13.6067 13.6143C14.32 12.9006 14.8058 11.9912 15.0026 11.0013C15.1994 10.0113 15.0984 8.98513 14.7124 8.05259C14.3263 7.12005 13.6725 6.323 12.8338 5.76222C11.995 5.20144 11.0088 4.90212 10 4.90212ZM10 13.3343C9.56088 13.3424 9.12463 13.2619 8.71733 13.0975C8.31003 12.9331 7.94004 12.6882 7.62949 12.3775C7.31893 12.0667 7.07418 11.6965 6.90987 11.289C6.74556 10.8815 6.66506 10.445 6.67318 10.0056C6.66506 9.56625 6.74556 9.12975 6.90987 8.72222C7.07418 8.3147 7.31893 7.9445 7.62949 7.63377C7.94004 7.32304 8.31003 7.07815 8.71733 6.91374C9.12463 6.74934 9.56088 6.6688 10 6.67693C10.4391 6.6688 10.8754 6.74934 11.2827 6.91374C11.69 7.07815 12.06 7.32304 12.3705 7.63377C12.6811 7.9445 12.9258 8.3147 13.0901 8.72222C13.2544 9.12975 13.3349 9.56625 13.3268 10.0056C13.3349 10.445 13.2544 10.8815 13.0901 11.289C12.9258 11.6965 12.6811 12.0667 12.3705 12.3775C12.06 12.6882 11.69 12.9331 11.2827 13.0975C10.8754 13.2619 10.4391 13.3424 10 13.3343ZM15.3227 3.46057C15.0814 3.46057 14.8455 3.53216 14.6449 3.66628C14.4443 3.80041 14.2879 3.99105 14.1956 4.21409C14.1032 4.43713 14.0791 4.68256 14.1261 4.91935C14.1732 5.15613 14.2894 5.37363 14.46 5.54434C14.6306 5.71505 14.848 5.8313 15.0847 5.8784C15.3213 5.9255 15.5666 5.90133 15.7895 5.80894C16.0124 5.71655 16.203 5.5601 16.337 5.35936C16.4711 5.15863 16.5426 4.92263 16.5426 4.68121C16.54 4.35828 16.4106 4.04932 16.1824 3.82097C15.9542 3.59262 15.6454 3.46318 15.3227 3.46057Z" fill="black"/>
</svg>
