<svg width="136" height="35" viewBox="0 0 136 35" fill="none" xmlns="http://www.w3.org/2000/svg">
<path d="M0.192727 33.6086C0.159483 33.6077 0.127021 33.5981 0.0985549 33.5809C0.0700883 33.5637 0.0465841 33.5394 0.0302948 33.5103C0.0140055 33.4813 0.00549438 33.4486 0.00561653 33.4153C0.00573868 33.382 0.0144839 33.3492 0.0309858 33.3203L17.7503 2.59883C18.069 2.07644 18.5169 1.64512 19.0506 1.34645C19.5843 1.04778 20.1859 0.891835 20.7973 0.893687C20.8303 0.894778 20.8624 0.904261 20.8907 0.921262C20.919 0.938263 20.9426 0.962215 20.959 0.990842L26.5161 10.629L32.0732 0.990842C32.0897 0.962215 32.1132 0.938263 32.1415 0.921262C32.1698 0.904261 32.202 0.894778 32.2349 0.893687C32.8464 0.891835 33.448 1.04778 33.9817 1.34645C34.5154 1.64512 34.9632 2.07644 35.282 2.59883L46.7018 22.4192C47.5925 23.9295 48.8629 25.1799 50.3863 26.0457C51.9098 26.9116 53.6333 27.3627 55.3851 27.3542C57.1369 27.3457 58.8559 26.8778 60.3709 25.9972C61.8859 25.1165 63.1441 23.8538 64.0201 22.3349C64.896 20.8159 65.3593 19.0937 65.3637 17.3397C65.3681 15.5858 64.9135 13.8612 64.0451 12.3379C63.1767 10.8146 61.9249 9.54563 60.4143 8.6574C58.9037 7.76918 57.1871 7.29271 55.4353 7.2754C53.8922 7.24414 52.3615 7.55665 50.9537 8.19031C49.7552 8.76343 48.3809 8.84729 47.1217 8.4242C45.8625 8.00112 44.817 7.10423 44.2063 5.92324L43.4656 4.63913C43.4429 4.59961 43.4347 4.55344 43.4424 4.50852C43.4501 4.46359 43.4731 4.42276 43.5076 4.39303C46.8388 1.5119 51.1064 -0.051606 55.5081 -0.00343583C67.0752 -0.00343583 72.6872 9.21529 72.6872 17.2438C72.6478 21.1171 71.3217 24.867 68.918 27.9021C66.5143 30.9371 63.1698 33.0846 59.4121 34.0058C55.6544 34.927 51.6974 34.5694 48.1651 32.9895C44.6328 31.4096 41.7264 28.6974 39.9043 25.2805L33.3703 13.9453C33.3528 13.9182 33.3289 13.896 33.3006 13.8806C33.2724 13.8652 33.2408 13.857 33.2086 13.857C33.1764 13.857 33.1447 13.8652 33.1165 13.8806C33.0882 13.896 33.0643 13.9182 33.0469 13.9453L26.6763 24.9857C26.6596 25.015 26.6354 25.0394 26.6063 25.0563C26.5772 25.0732 26.5441 25.0822 26.5105 25.0822C26.4768 25.0822 26.4437 25.0732 26.4146 25.0563C26.3855 25.0394 26.3614 25.015 26.3447 24.9857L19.9773 13.9453C19.9599 13.9182 19.936 13.896 19.9077 13.8806C19.8794 13.8652 19.8478 13.857 19.8156 13.857C19.7834 13.857 19.7518 13.8652 19.7235 13.8806C19.6952 13.896 19.6713 13.9182 19.6539 13.9453L9.89173 30.8687C9.41253 31.6994 8.72341 32.3892 7.89358 32.8687C7.06375 33.3482 6.12243 33.6006 5.16431 33.6005L0.192727 33.6086Z" fill="#7D58FC"/>
<path d="M90.5874 0.892182H76.2418C76.1911 0.892609 76.1425 0.913118 76.1068 0.949209C76.0711 0.985301 76.051 1.03408 76.051 1.08491V33.4128C76.051 33.4634 76.0711 33.512 76.1069 33.5479C76.1427 33.5837 76.1912 33.6039 76.2418 33.6039H83.1801C83.2053 33.6041 83.2303 33.5993 83.2536 33.5898C83.277 33.5803 83.2982 33.5662 83.3161 33.5485C83.334 33.5307 83.3482 33.5095 83.3579 33.4862C83.3676 33.463 83.3726 33.438 83.3726 33.4128V7.68356C83.3726 7.63288 83.3927 7.58429 83.4284 7.54845C83.4642 7.51262 83.5128 7.49251 83.5634 7.49251H88.6466C93.6474 7.49251 99.4115 10.3716 99.4115 17.2488C99.4483 19.4837 98.7113 21.6625 97.3257 23.415C95.94 25.1675 93.9912 26.3857 91.8102 26.8627C90.7587 27.2997 89.8661 28.0488 89.2528 29.0091C88.6395 29.9695 88.3348 31.0949 88.3798 32.2339V33.2881C88.3802 33.3386 88.4005 33.387 88.4362 33.4227C88.4719 33.4585 88.5201 33.4788 88.5706 33.4792H90.5777C94.8735 33.4976 99.0033 31.8199 102.072 28.8098C105.14 25.7997 106.9 21.6999 106.969 17.3994C107.026 15.2251 106.642 13.0618 105.84 11.0402C105.038 9.0187 103.836 7.18092 102.304 5.63798C100.773 4.09504 98.9453 2.87897 96.9314 2.06327C94.9175 1.24758 92.7594 0.849188 90.5874 0.892182Z" fill="#7D58FC"/>
<path d="M125.927 3.65163L120.428 12.9044C120.411 12.9318 120.387 12.9544 120.359 12.9701C120.331 12.9858 120.299 12.994 120.267 12.994C120.234 12.994 120.203 12.9858 120.174 12.9701C120.146 12.9544 120.122 12.9318 120.105 12.9044L114.606 3.65163C114.126 2.79239 113.42 2.08143 112.565 1.59606C111.709 1.1107 110.737 0.869542 109.754 0.898834H104.719C104.685 0.898581 104.651 0.907636 104.622 0.925075C104.592 0.942513 104.567 0.96766 104.551 0.997866C104.534 1.02807 104.526 1.06221 104.527 1.09665C104.529 1.1311 104.539 1.1646 104.558 1.19356L116.607 20.2382V33.4178C116.607 33.4686 116.627 33.5174 116.663 33.5535C116.698 33.5896 116.747 33.61 116.798 33.6105H123.736C123.787 33.61 123.835 33.5896 123.871 33.5535C123.907 33.5174 123.927 33.4686 123.927 33.4178V20.2318L135.976 1.18709C135.994 1.15813 136.005 1.12462 136.006 1.09018C136.007 1.05573 135.999 1.0216 135.983 0.991393C135.966 0.961186 135.942 0.93604 135.912 0.918601C135.882 0.901162 135.848 0.892107 135.814 0.89236H130.773C129.79 0.863269 128.818 1.10526 127.964 1.59191C127.109 2.07856 126.405 2.7911 125.927 3.65163Z" fill="#7D58FC"/>
</svg>
